<svg width="25" height="25" viewBox="0 0 25 25" fill="none" xmlns="http://www.w3.org/2000/svg">
<path d="M17.1875 0H7.8125C3.49844 0 0 3.49844 0 7.8125V17.1875C0 21.5016 3.49844 25 7.8125 25H17.1875C21.5016 25 25 21.5016 25 17.1875V7.8125C25 3.49844 21.5016 0 17.1875 0ZM22.6562 17.1875C22.6562 20.2031 20.2031 22.6562 17.1875 22.6562H7.8125C4.79688 22.6562 2.34375 20.2031 2.34375 17.1875V7.8125C2.34375 4.79688 4.79688 2.34375 7.8125 2.34375H17.1875C20.2031 2.34375 22.6562 4.79688 22.6562 7.8125V17.1875Z" fill="url(#paint0_linear_243_55)"/>
<path d="M12.5 6.25C9.04844 6.25 6.25 9.04844 6.25 12.5C6.25 15.9516 9.04844 18.75 12.5 18.75C15.9516 18.75 18.75 15.9516 18.75 12.5C18.75 9.04844 15.9516 6.25 12.5 6.25ZM12.5 16.4062C10.3469 16.4062 8.59375 14.6531 8.59375 12.5C8.59375 10.3453 10.3469 8.59375 12.5 8.59375C14.6531 8.59375 16.4062 10.3453 16.4062 12.5C16.4062 14.6531 14.6531 16.4062 12.5 16.4062Z" fill="url(#paint1_linear_243_55)"/>
<path d="M19.2188 6.6141C19.6787 6.6141 20.0516 6.24124 20.0516 5.7813C20.0516 5.32135 19.6787 4.94849 19.2188 4.94849C18.7588 4.94849 18.386 5.32135 18.386 5.7813C18.386 6.24124 18.7588 6.6141 19.2188 6.6141Z" fill="url(#paint2_linear_243_55)"/>
<defs>
<linearGradient id="paint0_linear_243_55" x1="2.28851" y1="22.7116" x2="22.7115" y2="2.28836" gradientUnits="userSpaceOnUse">
<stop stop-color="#FFC107"/>
<stop offset="0.507" stop-color="#F44336"/>
<stop offset="0.99" stop-color="#9C27B0"/>
</linearGradient>
<linearGradient id="paint1_linear_243_55" x1="8.0807" y1="16.9193" x2="16.9193" y2="8.0807" gradientUnits="userSpaceOnUse">
<stop stop-color="#FFC107"/>
<stop offset="0.507" stop-color="#F44336"/>
<stop offset="0.99" stop-color="#9C27B0"/>
</linearGradient>
<linearGradient id="paint2_linear_243_55" x1="18.63" y1="6.37028" x2="19.8076" y2="5.19246" gradientUnits="userSpaceOnUse">
<stop stop-color="#FFC107"/>
<stop offset="0.507" stop-color="#F44336"/>
<stop offset="0.99" stop-color="#9C27B0"/>
</linearGradient>
</defs>
</svg>
