<svg width="101" height="36" viewBox="0 0 101 36" fill="none" xmlns="http://www.w3.org/2000/svg">
<path d="M11.7655 6.27832H9.62628V7.3479H11.7655V6.27832Z" fill="black"/>
<path d="M11.7655 8.41748H9.62628V9.48706H11.7655V8.41748Z" fill="black"/>
<path d="M11.7655 10.5566H9.62628V11.6262H11.7655V10.5566Z" fill="black"/>
<path d="M19.2526 6.81311H18.183C18.1827 7.09668 18.0699 7.36854 17.8693 7.56905C17.6688 7.76956 17.397 7.88236 17.1134 7.88269V8.95228C17.6806 8.95164 18.2243 8.72606 18.6253 8.32503C19.0264 7.92399 19.2519 7.38026 19.2526 6.81311Z" fill="black"/>
<path d="M21.9266 9.48707V8.41748C21.643 8.41715 21.3712 8.30435 21.1706 8.10384C20.9701 7.90333 20.8573 7.63147 20.857 7.3479H19.7874C19.7881 7.91505 20.0136 8.45878 20.4147 8.85982C20.8157 9.26085 21.3594 9.48643 21.9266 9.48707Z" fill="black"/>
<path d="M27.5413 32.7661C26.6384 32.9302 25.7175 32.9714 24.8037 32.8884L15.505 32.043C15.3555 32.0294 15.217 31.9587 15.1184 31.8456C15.0197 31.7325 14.9684 31.5857 14.9752 31.4358C14.9819 31.2859 15.0462 31.1443 15.1547 31.0406C15.2631 30.9368 15.4074 30.8789 15.5575 30.8788H22.7287C23.0833 30.8782 23.4232 30.737 23.6739 30.4861C23.9245 30.2352 24.0654 29.8952 24.0656 29.5405V29.528C24.065 29.247 23.9739 28.9737 23.8057 28.7486L22.5812 27.1166C22.5036 27.0128 22.4615 26.8867 22.4613 26.7571V26.6653C22.4613 26.5467 22.4964 26.4308 22.5623 26.3322C22.6282 26.2336 22.7219 26.1567 22.8314 26.1113C22.941 26.0659 23.0616 26.0541 23.1779 26.0772C23.2942 26.1003 23.4011 26.1575 23.4849 26.2413L25.8266 28.583C25.8763 28.6326 25.9353 28.672 26.0002 28.6989C26.065 28.7258 26.1346 28.7396 26.2048 28.7396H32.0875V27.67H26.4263L24.2413 25.4849C24.1863 25.4301 24.1276 25.3791 24.0656 25.3322V13.2306C24.0656 13.0888 24.0093 12.9528 23.909 12.8525C23.8087 12.7522 23.6727 12.6958 23.5309 12.6958H22.9961V11.0915H23.7982C24.2947 11.0915 24.7708 10.8943 25.1218 10.5432C25.4728 10.1922 25.67 9.71612 25.67 9.21969C25.67 8.72327 25.4728 8.24718 25.1218 7.89615C24.7708 7.54513 24.2947 7.34792 23.7982 7.34792H23.743C24.0107 7.02709 24.1484 6.61751 24.1288 6.2001C24.1092 5.78268 23.9338 5.38779 23.6372 5.09343C23.3406 4.79908 22.9444 4.62666 22.5269 4.61025C22.1093 4.59384 21.7008 4.73462 21.382 5.0048C21.3314 4.47508 21.0852 3.98324 20.6914 3.6253C20.2977 3.26737 19.7846 3.06904 19.2525 3.06904C18.7204 3.06904 18.2074 3.26737 17.8136 3.6253C17.4199 3.98324 17.1736 4.47508 17.123 5.0048C16.8043 4.73462 16.3957 4.59384 15.9782 4.61025C15.5606 4.62666 15.1644 4.79908 14.8678 5.09343C14.5712 5.38779 14.3958 5.78268 14.3762 6.2001C14.3566 6.61751 14.4943 7.02709 14.7621 7.34792H14.7068C14.4292 7.34767 14.1551 7.4095 13.9046 7.52888V5.20875C13.9046 4.35774 13.5665 3.54158 12.9648 2.93982C12.363 2.33806 11.5469 2 10.6958 2C9.84483 2 9.02867 2.33806 8.42691 2.93982C7.82515 3.54158 7.48709 4.35774 7.48709 5.20875V12.6958H6.9523C6.81046 12.6958 6.67443 12.7522 6.57414 12.8525C6.47385 12.9528 6.4175 13.0888 6.4175 13.2306V15.5822L3.54574 18.0438H0V19.1133H3.74354C3.8712 19.1133 3.99464 19.0677 4.09156 18.9846L7.19122 16.3277C7.50987 16.0548 7.91561 15.9047 8.3352 15.9046C8.37901 15.9046 8.42183 15.9176 8.45824 15.9419C8.49466 15.9663 8.52305 16.0009 8.53981 16.0413C8.55656 16.0818 8.56094 16.1263 8.55239 16.1693C8.54384 16.2123 8.52274 16.2517 8.49176 16.2827L6.57413 18.2004C6.49934 18.2752 6.4484 18.3705 6.42776 18.4742C6.40713 18.578 6.41772 18.6855 6.4582 18.7832C6.49867 18.8809 6.56722 18.9645 6.65517 19.0232C6.74312 19.082 6.84652 19.1133 6.9523 19.1133H12.5676C12.6385 19.1133 12.7065 19.1415 12.7567 19.1917C12.8068 19.2418 12.835 19.3098 12.835 19.3807C12.835 19.4517 12.8068 19.5197 12.7567 19.5698C12.7065 19.62 12.6385 19.6481 12.5676 19.6481H8.55667C8.41484 19.6481 8.27881 19.7045 8.17852 19.8048C8.07822 19.9051 8.02188 20.0411 8.02188 20.1829C8.02188 20.3248 8.07822 20.4608 8.17852 20.5611C8.27881 20.6614 8.41484 20.7177 8.55667 20.7177H14.172C14.2429 20.7177 14.3109 20.7459 14.3611 20.796C14.4112 20.8462 14.4394 20.9142 14.4394 20.9851C14.4394 21.056 14.4112 21.1241 14.3611 21.1742C14.3109 21.2243 14.2429 21.2525 14.172 21.2525H8.55667C8.41484 21.2525 8.27881 21.3089 8.17852 21.4092C8.07822 21.5094 8.02188 21.6455 8.02188 21.7873C8.02188 21.9291 8.07822 22.0652 8.17852 22.1655C8.27881 22.2658 8.41484 22.3221 8.55667 22.3221H13.1024C13.1733 22.3221 13.2413 22.3503 13.2915 22.4004C13.3416 22.4506 13.3698 22.5186 13.3698 22.5895C13.3698 22.6604 13.3416 22.7284 13.2915 22.7786C13.2413 22.8287 13.1733 22.8569 13.1024 22.8569H8.55667C8.41484 22.8569 8.27881 22.9132 8.17852 23.0135C8.07822 23.1138 8.02188 23.2498 8.02188 23.3917C8.02188 23.5335 8.07822 23.6695 8.17852 23.7698C8.27881 23.8701 8.41484 23.9265 8.55667 23.9265H11.1972C11.2054 23.9269 11.2132 23.9303 11.2191 23.9361C11.2249 23.9419 11.2284 23.9496 11.2289 23.9578C11.2294 23.966 11.2269 23.9741 11.2218 23.9806C11.2167 23.987 11.2094 23.9914 11.2013 23.9928L7.52894 24.4518L3.89061 23.4123C3.84279 23.3986 3.79329 23.3917 3.74354 23.3917H0V24.4613H3.66867L6.4175 25.2467V30.344H6.41877C6.41827 30.4142 6.43172 30.4839 6.45833 30.5489C6.48495 30.614 6.52421 30.6731 6.57384 30.7228C6.62346 30.7726 6.68247 30.812 6.74743 30.8387C6.8124 30.8655 6.88203 30.8791 6.9523 30.8788H14.0116C13.9215 31.117 13.8878 31.3729 13.9131 31.6263C13.9383 31.8798 14.0218 32.124 14.157 32.3398C14.2922 32.5557 14.4755 32.7373 14.6925 32.8706C14.9096 33.0039 15.1545 33.0852 15.4082 33.1082L24.7068 33.9538C25.0452 33.9847 25.3841 34.0001 25.7235 34C26.3973 34 27.0697 33.9394 27.7326 33.8189L32.1832 33.0097L31.9919 31.9573L27.5413 32.7661ZM12.835 10.5567C12.8352 10.4149 12.8916 10.279 12.9918 10.1787C13.0921 10.0784 13.228 10.022 13.3698 10.0219H14.4394C15.0065 10.0225 15.5503 10.2481 15.9513 10.6491C16.3523 11.0502 16.5779 11.5939 16.5786 12.161C16.5784 12.3028 16.522 12.4388 16.4217 12.539C16.3215 12.6393 16.1855 12.6957 16.0438 12.6958H14.9742C14.407 12.6952 13.8633 12.4696 13.4623 12.0686C13.0612 11.6676 12.8356 11.1238 12.835 10.5567ZM14.7068 8.4175H16.0438C16.1495 8.41751 16.2529 8.38615 16.3409 8.32738C16.4288 8.26862 16.4974 8.18509 16.5379 8.08737C16.5783 7.98965 16.5889 7.88212 16.5683 7.77837C16.5477 7.67463 16.4967 7.57934 16.4219 7.50455L15.6197 6.70236C15.5641 6.64668 15.5199 6.58057 15.4897 6.50782C15.4596 6.43506 15.4441 6.35708 15.4441 6.27834C15.4441 6.19959 15.4596 6.12161 15.4897 6.04886C15.5199 5.9761 15.5641 5.91 15.6197 5.85431C15.6754 5.79863 15.7415 5.75446 15.8143 5.72432C15.887 5.69419 15.965 5.67868 16.0438 5.67868C16.1225 5.67868 16.2005 5.69419 16.2732 5.72432C16.346 5.75446 16.4121 5.79863 16.4678 5.85431L17.27 6.6565C17.3448 6.7313 17.4401 6.78223 17.5438 6.80287C17.6475 6.82351 17.7551 6.81292 17.8528 6.77244C17.9505 6.73196 18.034 6.66341 18.0928 6.57546C18.1516 6.48751 18.1829 6.38411 18.1829 6.27834V5.20875C18.1829 4.92508 18.2956 4.65303 18.4962 4.45244C18.6968 4.25186 18.9688 4.13917 19.2525 4.13917C19.5362 4.13917 19.8082 4.25186 20.0088 4.45244C20.2094 4.65303 20.3221 4.92508 20.3221 5.20875V6.27834C20.3221 6.38411 20.3535 6.48751 20.4122 6.57546C20.471 6.66341 20.5545 6.73196 20.6522 6.77244C20.75 6.81292 20.8575 6.82351 20.9612 6.80287C21.065 6.78223 21.1603 6.7313 21.2351 6.6565L22.0372 5.85431C22.0929 5.79863 22.159 5.75446 22.2318 5.72432C22.3045 5.69419 22.3825 5.67868 22.4613 5.67868C22.54 5.67868 22.618 5.69419 22.6907 5.72432C22.7635 5.75446 22.8296 5.79863 22.8853 5.85431C22.941 5.91 22.9851 5.9761 23.0153 6.04886C23.0454 6.12161 23.0609 6.19959 23.0609 6.27834C23.0609 6.35708 23.0454 6.43506 23.0153 6.50782C22.9851 6.58057 22.941 6.64668 22.8853 6.70236L22.0831 7.50455C22.0083 7.57934 21.9574 7.67463 21.9367 7.77837C21.9161 7.88212 21.9267 7.98965 21.9672 8.08737C22.0076 8.18509 22.0762 8.26862 22.1641 8.32738C22.2521 8.38615 22.3555 8.41751 22.4613 8.4175H23.7982C24.011 8.4175 24.215 8.50202 24.3655 8.65246C24.5159 8.8029 24.6004 9.00694 24.6004 9.21969C24.6004 9.43245 24.5159 9.63649 24.3655 9.78693C24.215 9.93736 24.011 10.0219 23.7982 10.0219H22.4613C22.3194 10.0219 22.1834 10.0782 22.0831 10.1785C21.9828 10.2788 21.9265 10.4148 21.9265 10.5567V10.8415C21.3025 10.2811 20.4834 9.9879 19.6455 10.025C18.8076 10.0622 18.0177 10.4266 17.4457 11.0401C17.2165 10.4275 16.806 9.89946 16.2688 9.52642C15.7316 9.15337 15.0934 8.95308 14.4394 8.9523H13.9514C14.0067 8.7961 14.109 8.66084 14.2443 8.5651C14.3795 8.46935 14.5411 8.41779 14.7068 8.4175ZM21.8588 12.6958H17.7159C17.8343 12.2365 18.102 11.8295 18.477 11.5389C18.852 11.2483 19.3129 11.0907 19.7873 11.0907C20.2617 11.0907 20.7226 11.2483 21.0976 11.5389C21.4726 11.8295 21.7403 12.2365 21.8588 12.6958ZM8.55667 5.20875C8.55667 4.64141 8.78205 4.0973 9.18322 3.69613C9.58439 3.29496 10.1285 3.06958 10.6958 3.06958C11.2632 3.06958 11.8073 3.29496 12.2085 3.69613C12.6096 4.0973 12.835 4.64141 12.835 5.20875V9.04428C12.5225 9.15519 12.2519 9.36008 12.0604 9.63086C11.8689 9.90163 11.7659 10.225 11.7654 10.5567C11.7649 11.3465 12.0569 12.1086 12.5851 12.6958H8.55667V5.20875ZM9.62626 13.7654H10.6958V18.0438H9.62626V13.7654ZM8.3352 14.835C8.0475 14.8351 7.7615 14.8792 7.48709 14.9656V13.7654H8.55667V14.8554C8.48357 14.8423 8.40947 14.8354 8.3352 14.835ZM8.55667 17.7305V18.0438H8.24335L8.55667 17.7305ZM9.62626 25.2676L10.6958 25.1339V29.0528L9.62626 27.9832V25.2676ZM7.5534 25.5267L8.55667 25.4013V27.9833L7.48709 29.0529V25.5309C7.50926 25.5308 7.53141 25.5295 7.5534 25.5267ZM8.24335 29.8092L9.09146 28.9611L9.93958 29.8092H8.24335ZM11.7654 24.9035C11.9283 24.8056 12.0631 24.6672 12.1568 24.5019C12.2504 24.3365 12.2999 24.1498 12.3002 23.9598C12.3002 23.9486 12.3002 23.9375 12.2997 23.9263H13.1024C13.3024 23.9262 13.4999 23.8813 13.6802 23.7948C13.8606 23.7083 14.0193 23.5824 14.1445 23.4265C14.2698 23.2705 14.3585 23.0885 14.4041 22.8937C14.4498 22.699 14.4511 22.4965 14.4081 22.3011C14.7369 22.2421 15.0318 22.0622 15.2346 21.7967C15.4374 21.5312 15.5335 21.1994 15.5038 20.8666C15.4742 20.5338 15.3211 20.2242 15.0746 19.9987C14.8281 19.7732 14.5061 19.6481 14.172 19.6481H13.8779C13.9173 19.4539 13.9132 19.2533 13.8656 19.0608C13.8181 18.8684 13.7284 18.6889 13.603 18.5354C13.4776 18.3819 13.3197 18.2581 13.1406 18.1731C12.9616 18.0881 12.7658 18.0439 12.5676 18.0438H11.7654V13.7654H22.9961V24.9977C22.5651 25.015 22.1576 25.1981 21.8586 25.5089C21.5596 25.8197 21.3923 26.2341 21.3917 26.6653V26.7571C21.3925 27.1182 21.5097 27.4694 21.7259 27.7587L22.9503 29.3904C22.98 29.4302 22.9961 29.4784 22.9963 29.528V29.5405C22.9963 29.6116 22.9682 29.6798 22.918 29.7302C22.8679 29.7806 22.7998 29.809 22.7287 29.8092H11.7654V24.9035Z" fill="black"/>
<path d="M47.6103 14H45.3837L45.3984 12.8501H47.6103C48.372 12.8501 49.0068 12.6914 49.5146 12.374C50.0224 12.0518 50.4033 11.6025 50.6572 11.0264C50.916 10.4453 51.0453 9.7666 51.0453 8.99023V8.33838C51.0453 7.72803 50.9721 7.18604 50.8256 6.7124C50.6791 6.23389 50.4643 5.83105 50.1811 5.50391C49.8979 5.17188 49.5512 4.92041 49.1411 4.74951C48.7358 4.57861 48.2695 4.49316 47.7421 4.49316H45.3398V3.33594H47.7421C48.4404 3.33594 49.0776 3.45312 49.6537 3.6875C50.2299 3.91699 50.7255 4.25146 51.1406 4.69092C51.5605 5.12549 51.8828 5.65283 52.1074 6.27295C52.332 6.88818 52.4443 7.58154 52.4443 8.35303V8.99023C52.4443 9.76172 52.332 10.4575 52.1074 11.0776C51.8828 11.6929 51.558 12.2178 51.1332 12.6523C50.7133 13.0869 50.2055 13.4214 49.6098 13.6558C49.019 13.8853 48.3525 14 47.6103 14ZM46.1381 3.33594V14H44.7245V3.33594H46.1381ZM57.6518 14.1465C57.1 14.1465 56.5995 14.0537 56.1503 13.8682C55.706 13.6777 55.3227 13.4116 55.0004 13.0698C54.683 12.728 54.4389 12.3228 54.268 11.854C54.0971 11.3853 54.0117 10.8726 54.0117 10.3159V10.0083C54.0117 9.36377 54.1069 8.79004 54.2973 8.28711C54.4877 7.7793 54.7465 7.34961 55.0737 6.99805C55.4008 6.64648 55.7719 6.38037 56.187 6.19971C56.602 6.01904 57.0317 5.92871 57.476 5.92871C58.0424 5.92871 58.5307 6.02637 58.9409 6.22168C59.3559 6.41699 59.6953 6.69043 59.9589 7.04199C60.2226 7.38867 60.4179 7.79883 60.5449 8.27246C60.6718 8.74121 60.7353 9.25391 60.7353 9.81055V10.4185H54.8173V9.3125H59.3803V9.20996C59.3608 8.8584 59.2875 8.5166 59.1606 8.18457C59.0385 7.85254 58.8432 7.5791 58.5746 7.36426C58.3061 7.14941 57.9399 7.04199 57.476 7.04199C57.1684 7.04199 56.8852 7.10791 56.6264 7.23975C56.3676 7.3667 56.1454 7.55713 55.9599 7.81104C55.7744 8.06494 55.6303 8.375 55.5278 8.74121C55.4252 9.10742 55.374 9.52979 55.374 10.0083V10.3159C55.374 10.6919 55.4252 11.0459 55.5278 11.3779C55.6352 11.7051 55.789 11.9932 55.9892 12.2422C56.1943 12.4912 56.4409 12.6865 56.7289 12.8281C57.0219 12.9697 57.3539 13.0405 57.725 13.0405C58.2036 13.0405 58.6088 12.9429 58.9409 12.7476C59.2729 12.5522 59.5634 12.291 59.8124 11.9639L60.6328 12.6157C60.4619 12.8745 60.2446 13.1211 59.9809 13.3555C59.7172 13.5898 59.3925 13.7803 59.0068 13.9268C58.6259 14.0732 58.1743 14.1465 57.6518 14.1465ZM63.7895 2.75V14H62.4272V2.75H63.7895ZM67.437 6.0752V14H66.0746V6.0752H67.437ZM65.9721 3.97314C65.9721 3.75342 66.038 3.56787 66.1699 3.4165C66.3066 3.26514 66.5068 3.18945 66.7704 3.18945C67.0292 3.18945 67.227 3.26514 67.3637 3.4165C67.5053 3.56787 67.5761 3.75342 67.5761 3.97314C67.5761 4.18311 67.5053 4.36377 67.3637 4.51514C67.227 4.66162 67.0292 4.73486 66.7704 4.73486C66.5068 4.73486 66.3066 4.66162 66.1699 4.51514C66.038 4.36377 65.9721 4.18311 65.9721 3.97314ZM72.0219 12.7769L74.1899 6.0752H75.5742L72.725 14H71.8168L72.0219 12.7769ZM70.2128 6.0752L72.4467 12.8135L72.6005 14H71.6923L68.8212 6.0752H70.2128ZM80.0639 14.1465C79.5121 14.1465 79.0117 14.0537 78.5624 13.8682C78.1181 13.6777 77.7348 13.4116 77.4125 13.0698C77.0952 12.728 76.851 12.3228 76.6801 11.854C76.5092 11.3853 76.4238 10.8726 76.4238 10.3159V10.0083C76.4238 9.36377 76.519 8.79004 76.7094 8.28711C76.8998 7.7793 77.1586 7.34961 77.4858 6.99805C77.8129 6.64648 78.184 6.38037 78.5991 6.19971C79.0141 6.01904 79.4438 5.92871 79.8881 5.92871C80.4545 5.92871 80.9428 6.02637 81.353 6.22168C81.768 6.41699 82.1074 6.69043 82.371 7.04199C82.6347 7.38867 82.83 7.79883 82.957 8.27246C83.0839 8.74121 83.1474 9.25391 83.1474 9.81055V10.4185H77.2294V9.3125H81.7924V9.20996C81.7729 8.8584 81.6996 8.5166 81.5727 8.18457C81.4506 7.85254 81.2553 7.5791 80.9868 7.36426C80.7182 7.14941 80.352 7.04199 79.8881 7.04199C79.5805 7.04199 79.2973 7.10791 79.0385 7.23975C78.7797 7.3667 78.5576 7.55713 78.372 7.81104C78.1865 8.06494 78.0424 8.375 77.9399 8.74121C77.8373 9.10742 77.7861 9.52979 77.7861 10.0083V10.3159C77.7861 10.6919 77.8373 11.0459 77.9399 11.3779C78.0473 11.7051 78.2011 11.9932 78.4013 12.2422C78.6064 12.4912 78.853 12.6865 79.1411 12.8281C79.434 12.9697 79.7661 13.0405 80.1371 13.0405C80.6157 13.0405 81.0209 12.9429 81.353 12.7476C81.685 12.5522 81.9755 12.291 82.2245 11.9639L83.0449 12.6157C82.874 12.8745 82.6567 13.1211 82.393 13.3555C82.1293 13.5898 81.8046 13.7803 81.4189 13.9268C81.038 14.0732 80.5864 14.1465 80.0639 14.1465ZM86.0844 7.32031V14H84.7294V6.0752H86.0478L86.0844 7.32031ZM88.56 6.03125L88.5527 7.29102C88.4404 7.2666 88.3329 7.25195 88.2304 7.24707C88.1328 7.2373 88.0204 7.23242 87.8935 7.23242C87.581 7.23242 87.3051 7.28125 87.0659 7.37891C86.8266 7.47656 86.624 7.61328 86.4579 7.78906C86.2919 7.96484 86.1601 8.1748 86.0624 8.41895C85.9697 8.6582 85.9086 8.92188 85.8793 9.20996L85.4985 9.42969C85.4985 8.95117 85.5449 8.50195 85.6376 8.08203C85.7353 7.66211 85.8842 7.29102 86.0844 6.96875C86.2846 6.6416 86.5385 6.3877 86.8461 6.20703C87.1586 6.02148 87.5297 5.92871 87.9594 5.92871C88.0571 5.92871 88.1694 5.94092 88.2963 5.96533C88.4233 5.98486 88.5112 6.00684 88.56 6.03125ZM92.1708 13.1797L94.3754 6.0752H95.8256L92.6469 15.2231C92.5737 15.4185 92.476 15.6284 92.3539 15.853C92.2368 16.0825 92.0854 16.2998 91.8998 16.5049C91.7143 16.71 91.4897 16.876 91.226 17.0029C90.9672 17.1348 90.6572 17.2007 90.2958 17.2007C90.1884 17.2007 90.0517 17.186 89.8857 17.1567C89.7197 17.1274 89.6025 17.103 89.5341 17.0835L89.5268 15.9849C89.5659 15.9897 89.6269 15.9946 89.7099 15.9995C89.7978 16.0093 89.8588 16.0142 89.893 16.0142C90.2006 16.0142 90.4619 15.9727 90.6767 15.8896C90.8915 15.8115 91.0722 15.6772 91.2187 15.4868C91.3701 15.3013 91.4995 15.0449 91.6069 14.7178L92.1708 13.1797ZM90.5522 6.0752L92.6103 12.2275L92.9619 13.6558L91.9877 14.1538L89.0727 6.0752H90.5522ZM46.1381 21.3359V32H44.7245V21.3359H46.1381ZM50.6059 26.1333V27.2905H45.8305V26.1333H50.6059ZM51.331 21.3359V22.4932H45.8305V21.3359H51.331ZM52.2905 28.1255V27.957C52.2905 27.3857 52.3735 26.856 52.5395 26.3677C52.7055 25.8745 52.9448 25.4473 53.2573 25.0859C53.5698 24.7197 53.9482 24.4365 54.3925 24.2363C54.8369 24.0312 55.3349 23.9287 55.8867 23.9287C56.4433 23.9287 56.9438 24.0312 57.3881 24.2363C57.8373 24.4365 58.2182 24.7197 58.5307 25.0859C58.8481 25.4473 59.0898 25.8745 59.2558 26.3677C59.4218 26.856 59.5048 27.3857 59.5048 27.957V28.1255C59.5048 28.6968 59.4218 29.2266 59.2558 29.7148C59.0898 30.2031 58.8481 30.6304 58.5307 30.9966C58.2182 31.3579 57.8398 31.6411 57.3954 31.8462C56.956 32.0464 56.4579 32.1465 55.9013 32.1465C55.3447 32.1465 54.8442 32.0464 54.3998 31.8462C53.9555 31.6411 53.5746 31.3579 53.2573 30.9966C52.9448 30.6304 52.7055 30.2031 52.5395 29.7148C52.3735 29.2266 52.2905 28.6968 52.2905 28.1255ZM53.6454 27.957V28.1255C53.6454 28.521 53.6918 28.8945 53.7846 29.2461C53.8774 29.5928 54.0165 29.9004 54.2021 30.1689C54.3925 30.4375 54.6293 30.6499 54.9125 30.8062C55.1957 30.9575 55.5253 31.0332 55.9013 31.0332C56.2724 31.0332 56.5971 30.9575 56.8754 30.8062C57.1586 30.6499 57.393 30.4375 57.5786 30.1689C57.7641 29.9004 57.9033 29.5928 57.996 29.2461C58.0937 28.8945 58.1425 28.521 58.1425 28.1255V27.957C58.1425 27.5664 58.0937 27.1978 57.996 26.8511C57.9033 26.4995 57.7617 26.1895 57.5712 25.9209C57.3857 25.6475 57.1513 25.4326 56.8681 25.2764C56.5898 25.1201 56.2626 25.042 55.8867 25.042C55.5156 25.042 55.1884 25.1201 54.9052 25.2764C54.6269 25.4326 54.3925 25.6475 54.2021 25.9209C54.0165 26.1895 53.8774 26.4995 53.7846 26.8511C53.6918 27.1978 53.6454 27.5664 53.6454 27.957ZM60.8452 28.1255V27.957C60.8452 27.3857 60.9282 26.856 61.0942 26.3677C61.2602 25.8745 61.4995 25.4473 61.812 25.0859C62.1245 24.7197 62.5029 24.4365 62.9472 24.2363C63.3915 24.0312 63.8896 23.9287 64.4413 23.9287C64.998 23.9287 65.4985 24.0312 65.9428 24.2363C66.392 24.4365 66.7729 24.7197 67.0854 25.0859C67.4028 25.4473 67.6445 25.8745 67.8105 26.3677C67.9765 26.856 68.0595 27.3857 68.0595 27.957V28.1255C68.0595 28.6968 67.9765 29.2266 67.8105 29.7148C67.6445 30.2031 67.4028 30.6304 67.0854 30.9966C66.7729 31.3579 66.3945 31.6411 65.9501 31.8462C65.5107 32.0464 65.0126 32.1465 64.456 32.1465C63.8994 32.1465 63.3989 32.0464 62.9545 31.8462C62.5102 31.6411 62.1293 31.3579 61.812 30.9966C61.4995 30.6304 61.2602 30.2031 61.0942 29.7148C60.9282 29.2266 60.8452 28.6968 60.8452 28.1255ZM62.2001 27.957V28.1255C62.2001 28.521 62.2465 28.8945 62.3393 29.2461C62.4321 29.5928 62.5712 29.9004 62.7568 30.1689C62.9472 30.4375 63.184 30.6499 63.4672 30.8062C63.7504 30.9575 64.08 31.0332 64.456 31.0332C64.8271 31.0332 65.1518 30.9575 65.4301 30.8062C65.7133 30.6499 65.9477 30.4375 66.1332 30.1689C66.3188 29.9004 66.4579 29.5928 66.5507 29.2461C66.6484 28.8945 66.6972 28.521 66.6972 28.1255V27.957C66.6972 27.5664 66.6484 27.1978 66.5507 26.8511C66.4579 26.4995 66.3163 26.1895 66.1259 25.9209C65.9404 25.6475 65.706 25.4326 65.4228 25.2764C65.1445 25.1201 64.8173 25.042 64.4413 25.042C64.0703 25.042 63.7431 25.1201 63.4599 25.2764C63.1816 25.4326 62.9472 25.6475 62.7568 25.9209C62.5712 26.1895 62.4321 26.4995 62.3393 26.8511C62.2465 27.1978 62.2001 27.5664 62.2001 27.957ZM74.7538 30.4619V20.75H76.1161V32H74.871L74.7538 30.4619ZM69.4218 28.1255V27.9717C69.4218 27.3662 69.4951 26.8169 69.6415 26.3237C69.7929 25.8257 70.0053 25.3984 70.2787 25.042C70.5571 24.6855 70.8867 24.4121 71.2675 24.2217C71.6533 24.0264 72.0829 23.9287 72.5566 23.9287C73.0546 23.9287 73.4892 24.0166 73.8603 24.1924C74.2363 24.3633 74.5536 24.6147 74.8124 24.9468C75.0761 25.2739 75.2836 25.6694 75.435 26.1333C75.5864 26.5972 75.6913 27.1221 75.7499 27.708V28.3818C75.6962 28.9629 75.5912 29.4854 75.435 29.9492C75.2836 30.4131 75.0761 30.8086 74.8124 31.1357C74.5536 31.4629 74.2363 31.7144 73.8603 31.8901C73.4843 32.061 73.0449 32.1465 72.5419 32.1465C72.0781 32.1465 71.6533 32.0464 71.2675 31.8462C70.8867 31.646 70.5571 31.3652 70.2787 31.0039C70.0053 30.6426 69.7929 30.2178 69.6415 29.7295C69.4951 29.2363 69.4218 28.7017 69.4218 28.1255ZM70.7841 27.9717V28.1255C70.7841 28.521 70.8232 28.8921 70.9013 29.2388C70.9843 29.5854 71.1113 29.8906 71.2822 30.1543C71.4531 30.418 71.6703 30.6255 71.934 30.7769C72.1977 30.9233 72.5126 30.9966 72.8788 30.9966C73.3281 30.9966 73.6967 30.9014 73.9848 30.7109C74.2778 30.5205 74.5121 30.269 74.6879 29.9565C74.8637 29.644 75.0004 29.3047 75.0981 28.9385V27.1733C75.0395 26.9048 74.954 26.646 74.8417 26.397C74.7343 26.1431 74.5927 25.9185 74.4169 25.7231C74.246 25.5229 74.0336 25.3643 73.7797 25.2471C73.5307 25.1299 73.2353 25.0713 72.8935 25.0713C72.5224 25.0713 72.2026 25.1494 71.934 25.3057C71.6703 25.457 71.4531 25.667 71.2822 25.9355C71.1113 26.1992 70.9843 26.5068 70.9013 26.8584C70.8232 27.2051 70.7841 27.5762 70.7841 27.9717Z" fill="black"/>
</svg>
